<svg width="174" height="28" viewBox="0 0 174 28" fill="none" xmlns="http://www.w3.org/2000/svg">
<g clip-path="url(#clip0_4_95)">
<path d="M8.24723 28C7.15284 28 6.10179 28 4.29226 27.9891C3.72881 28 3.13286 27.8155 2.69944 27.4139C2.25518 27.0015 1.59421 26.4372 1.14996 26.0031C0.911576 25.7752 0.727373 25.4822 0.619017 25.1674C0.532333 24.9178 0.46732 24.6465 0.488991 24.386C0.510662 23.9953 0.619017 23.6263 0.803221 23.2791C1.11745 22.6822 1.41001 22.0744 1.71341 21.4667C3.41458 18.0372 5.1266 14.5969 6.82777 11.1674C7.07699 10.6791 7.31537 10.1798 7.56459 9.69146C8.01968 8.80154 8.7565 8.28061 9.75337 8.16123C10.0026 8.12867 10.2626 8.12867 10.5119 8.12867C18.2159 8.12867 25.9091 8.12867 33.6024 8.12867C33.7324 8.12867 33.8191 8.12867 33.9491 8.12867C34.0033 8.031 34.0574 7.94417 34.1008 7.85735C34.9568 6.14262 35.8128 4.43875 36.6688 2.72402C36.918 2.23565 37.1564 1.73642 37.4056 1.24805C37.7632 0.56433 38.3158 0.151926 39.0851 0.0325466C39.1285 0.0216939 39.1718 -1.15447e-05 39.2043 -0.0108643C39.3452 -0.0108643 39.4535 -0.0108643 39.6052 -0.0108643C39.7028 0.0651047 39.8328 0.0325466 39.9411 0.0651047C40.3637 0.173632 40.7213 0.390686 41.0247 0.694562C41.6098 1.2589 42.1949 1.82324 42.7692 2.39844C44.1345 3.75503 45.4889 5.11162 46.8434 6.47906C46.8867 6.52247 46.9301 6.56588 46.9734 6.60929C47.0059 6.64185 47.0601 6.66355 47.1034 6.69611C47.1468 6.60929 47.1901 6.53332 47.2226 6.4682C48.0786 4.75348 48.9346 3.03875 49.7906 1.33487C49.8448 1.2372 49.9315 1.07441 49.9965 0.976733C50.3649 0.466655 50.8525 0.141074 51.4918 0.0433993C51.5352 0.0325466 51.5785 0.0108412 51.611 -1.15447e-05H52.0444C52.0878 0.0108412 52.1311 0.0325466 52.1744 0.0433993C52.662 0.0976629 53.063 0.314717 53.4205 0.651151C53.8648 1.07441 54.309 1.49766 54.7425 1.93177C56.3245 3.51627 57.9064 5.10076 59.4884 6.68526C59.5426 6.73952 59.5968 6.79379 59.651 6.84805C59.9544 7.15193 60.1819 7.52092 60.3228 7.92247C60.3444 7.98759 60.3661 8.0527 60.3986 8.12867C60.5178 8.16123 60.637 8.15038 60.7562 8.15038C65.1121 8.15038 69.4788 8.15038 73.8347 8.15038C76.3702 8.15038 78.9057 8.15038 81.4412 8.15038C83.2616 8.15038 85.0928 8.15038 86.9131 8.15038C95.2023 8.15038 103.492 8.15038 111.77 8.15038C114.468 8.15038 117.166 8.15038 119.864 8.15038C121.435 8.15038 123.006 8.15038 124.577 8.15038C133.029 8.15038 141.481 8.15038 149.922 8.15038C156.488 8.15038 163.044 8.15038 169.61 8.15038C169.74 8.15038 169.881 8.15038 170.022 8.15038C170.585 8.17208 171.083 8.33487 171.506 8.72557C171.961 9.14883 172.405 9.58293 172.85 10.017C173.121 10.2884 173.316 10.6031 173.391 10.9938C173.391 11.0155 173.424 11.0372 173.435 11.0589V12.0791C173.424 12.0899 173.413 12.0899 173.413 12.1008C173.359 12.3612 173.24 12.5891 173.121 12.8279C170.899 17.2667 168.678 21.7163 166.446 26.155C166.392 26.2636 166.338 26.3829 166.273 26.4915C165.861 27.186 165.232 27.7287 164.441 27.9132C164.16 27.9783 163.965 28.0108 163.65 28.0108C163.412 28.0108 163.26 28.0108 162.924 28.0108L8.24723 28ZM127.124 25.0698C130.472 25.0698 133.82 25.0698 137.168 25.0698C137.266 25.0698 137.363 25.0698 137.472 25.0698C137.916 25.0481 138.241 24.8418 138.469 24.462C138.501 24.3969 138.534 24.3318 138.566 24.2667C139.476 22.4651 140.386 20.6527 141.297 18.8512C142.662 16.1488 144.027 13.4356 145.382 10.7333C145.382 10.7333 145.382 10.7225 145.392 10.7225C145.512 10.4837 145.533 10.1907 145.414 9.95193C145.23 9.57208 144.927 9.57208 144.645 9.57208C137.894 9.57208 131.144 9.57208 124.393 9.57208C124.307 9.57208 124.231 9.57208 124.155 9.57208C123.667 9.61549 123.299 9.8434 123.082 10.2775C123.05 10.3318 123.028 10.386 122.995 10.4512C120.742 14.955 118.488 19.4589 116.234 23.9519C116.202 24.0279 116.158 24.093 116.137 24.1798C115.985 24.6682 116.375 25.0589 116.722 25.0698C116.808 25.0698 116.884 25.0698 116.96 25.0698C118.802 25.0698 120.644 25.0698 122.486 25.0806C124.014 25.0806 125.563 25.0806 127.124 25.0698ZM12.9824 25.1132C16.3305 25.1132 19.6787 25.1132 23.0269 25.1132C23.1244 25.1132 23.2219 25.1132 23.3303 25.1132C23.6445 25.1023 23.9046 24.9612 24.1213 24.7442C24.2405 24.6248 24.3163 24.4837 24.3922 24.3426C25.0856 22.9643 25.7899 21.586 26.4834 20.2186C26.5159 20.1535 26.5484 20.0884 26.5809 20.0232C26.7651 19.5891 26.5159 19.1442 26.05 19.0574C25.9525 19.0356 25.855 19.0465 25.7574 19.0465C23.3519 19.0465 20.9573 19.0465 18.5518 19.0465C18.4868 19.0465 18.4218 19.0465 18.3568 19.0465C17.8583 19.0791 17.4791 19.307 17.2515 19.7519C17.1757 19.9039 17.0999 20.0558 17.0132 20.2077C16.8073 20.6093 16.6014 21.0108 16.3847 21.4124C16.1463 21.8465 15.7888 22.0744 15.2903 22.0744C15.0844 22.0744 14.8786 22.0744 14.6619 22.0744C14.2826 22.0744 13.9034 22.0744 13.5241 22.0744C13.1557 22.0744 12.7331 21.6729 12.9282 21.1411C12.9498 21.0651 12.9932 20.9891 13.0365 20.924C13.3833 20.2403 13.73 19.5566 14.0767 18.8729C14.1418 18.7426 14.2068 18.6124 14.2718 18.4822C14.4451 18.1783 14.7052 17.9721 15.0411 17.8961C15.1928 17.8636 15.3445 17.8527 15.4962 17.8527C16.4931 17.8527 17.4791 17.8744 18.476 17.8744C21.3365 17.8744 24.1971 17.8744 27.0577 17.8744C27.1335 17.8744 27.1986 17.8744 27.2744 17.8744C27.5453 17.8527 27.7512 17.7225 27.8812 17.4729C27.9137 17.4186 27.9354 17.3535 27.9679 17.2992C29.0081 15.1287 30.0483 12.9473 31.0885 10.7767C31.1102 10.7225 31.1427 10.6574 31.1644 10.6031C31.3486 10.2015 31.1319 9.66976 30.5792 9.61549C30.4926 9.60464 30.395 9.60464 30.3084 9.60464C23.6228 9.60464 16.9265 9.60464 10.241 9.60464C10.1651 9.60464 10.1001 9.60464 10.0243 9.60464C9.50415 9.62634 9.11407 9.8651 8.87569 10.3426C8.85402 10.386 8.83235 10.4294 8.81067 10.462C7.79213 12.5023 6.7736 14.5535 5.76589 16.5938C4.54148 19.0574 3.31706 21.5209 2.09265 23.9845C2.04931 24.0605 2.0168 24.1473 1.98429 24.2341C1.8651 24.6356 2.14683 25.0589 2.55858 25.1023C2.6561 25.1132 2.75362 25.1132 2.86197 25.1132C6.24265 25.124 9.6125 25.124 12.9824 25.1132ZM158.98 25.0698C160.064 25.0698 161.147 25.0698 162.231 25.0698C162.426 25.0698 162.61 25.0698 162.794 25.0698C163.26 25.0589 163.596 24.8418 163.835 24.4403C163.867 24.3752 163.9 24.3101 163.932 24.2449C166.186 19.7302 168.45 15.2263 170.704 10.7116C170.737 10.6465 170.769 10.5814 170.802 10.5163C170.953 10.1039 170.726 9.66976 170.282 9.58293C170.162 9.56123 170.043 9.56123 169.935 9.56123C163.195 9.56123 156.445 9.56123 149.705 9.56123C149.629 9.56123 149.564 9.56123 149.488 9.56123C149.185 9.57208 148.936 9.71317 148.751 9.95193C148.686 10.0496 148.621 10.1473 148.567 10.2558C148.112 11.1457 147.668 12.0248 147.224 12.9147C145.371 16.5721 143.529 20.2294 141.676 23.8868C141.633 23.9736 141.589 24.0605 141.546 24.1581C141.383 24.5922 141.73 25.048 142.131 25.0589C142.229 25.0589 142.326 25.0589 142.434 25.0589C144.645 25.0589 146.855 25.0589 149.066 25.0589C149.304 25.0589 149.553 25.0698 149.803 25.0589C149.933 25.048 150.073 25.0372 150.203 24.9938C150.572 24.8853 150.81 24.6248 150.984 24.2884C152.609 21.0217 154.245 17.7442 155.87 14.4775C156.065 14.0868 156.261 13.707 156.445 13.3163C156.607 12.9907 156.856 12.7628 157.203 12.6651C157.355 12.6217 157.517 12.6 157.68 12.6C158.135 12.5891 158.579 12.6 159.034 12.6C159.121 12.6 159.197 12.6108 159.273 12.6217C159.652 12.6651 159.988 13.1101 159.793 13.5659C159.76 13.6527 159.717 13.7287 159.674 13.8046C157.994 17.1581 156.315 20.5008 154.635 23.8434C154.581 23.9411 154.538 24.0387 154.494 24.1473C154.321 24.5705 154.624 25.048 155.09 25.0589C155.177 25.0589 155.253 25.0589 155.329 25.0589C156.564 25.0698 157.767 25.0698 158.98 25.0698ZM63.6276 25.1783C66.9866 25.1783 70.3348 25.1783 73.683 25.1783C73.7805 25.1783 73.878 25.1783 73.9864 25.1783C74.4414 25.1566 74.7773 24.9504 75.0049 24.5597C75.0591 24.462 75.1024 24.3643 75.1566 24.2667C77.107 20.3488 79.0682 16.4201 81.0186 12.5023C81.322 11.9054 81.6037 11.2977 81.918 10.7116C82.1455 10.2667 81.9071 9.66976 81.2895 9.6589C81.2136 9.6589 81.1486 9.6589 81.0728 9.6589C78.6998 9.6589 76.3377 9.6589 73.9647 9.6589C73.878 9.6589 73.8022 9.6589 73.7263 9.6589C73.2387 9.69146 72.8703 9.90852 72.6427 10.3535C72.6102 10.4077 72.5886 10.4729 72.5561 10.5271C70.8116 14.0217 69.067 17.5054 67.3117 21C67.2142 21.1845 67.1275 21.3798 67.0299 21.5535C66.8132 21.9225 66.4882 22.1287 66.0548 22.1395C65.8055 22.1504 65.5455 22.1395 65.2963 22.1395C64.9495 22.1395 64.592 22.1287 64.2344 22.1395C63.7901 22.1504 63.3892 21.662 63.6168 21.1519C63.6384 21.1085 63.6709 21.0543 63.6926 21.0108C64.126 20.1426 64.5594 19.2853 64.982 18.417C66.239 15.8992 67.4959 13.3705 68.7636 10.8527C68.807 10.7767 68.8503 10.6899 68.8828 10.6031C69.0454 10.2015 68.7745 9.75658 68.4061 9.69146C68.2869 9.66976 68.1677 9.6589 68.0593 9.6589C65.6538 9.6589 63.2484 9.6589 60.8429 9.6589C60.2036 9.6589 59.7701 9.91937 59.4884 10.4946C58.4482 12.6108 57.3863 14.7163 56.3245 16.8217C55.1325 19.2093 53.9298 21.6077 52.7379 23.9953C52.597 24.2667 52.4562 24.5705 52.7162 24.907C52.8137 25.0372 52.9546 25.1349 53.1171 25.1566C53.2363 25.1783 53.3664 25.1674 53.4964 25.1674C56.8662 25.1783 60.2469 25.1783 63.6276 25.1783ZM89.2103 25.0698C92.5693 25.0698 95.9175 25.0698 99.2765 25.0698C99.3632 25.0698 99.4607 25.0698 99.5474 25.0698C100.002 25.0589 100.349 24.8527 100.566 24.462C100.815 24.0279 101.043 23.5829 101.259 23.138C101.389 22.8884 101.368 22.5736 101.216 22.3457C100.988 21.9984 100.707 22.031 100.425 22.031C97.0119 22.031 93.6095 22.031 90.1963 22.031C90.0988 22.031 90.0013 22.0418 89.8929 22.031C89.8171 22.0201 89.7304 22.0093 89.6545 21.9767C89.3186 21.8356 89.1669 21.4558 89.2861 21.1194C89.3078 21.0651 89.3295 21.0217 89.362 20.9674C89.6003 20.5116 89.8387 20.0558 90.0771 19.6C90.3155 19.1442 90.6839 18.9271 91.1823 18.8946C91.2799 18.8837 91.3774 18.8946 91.4857 18.8946C95.1373 18.8946 98.7889 18.8946 102.44 18.8946C102.538 18.8946 102.635 18.8946 102.744 18.8946C103.177 18.8729 103.502 18.6775 103.73 18.3194C103.773 18.2543 103.806 18.2 103.838 18.1349C105.204 15.6387 106.569 13.1318 107.934 10.6356C107.988 10.5488 108.032 10.4512 108.064 10.3535C108.097 10.2558 108.118 10.1473 108.086 10.0387C108.01 9.73487 107.837 9.52867 107.533 9.47441C107.403 9.4527 107.262 9.4527 107.132 9.4527C100.403 9.4527 93.6745 9.4527 86.9565 9.4527C86.8806 9.4527 86.8156 9.4527 86.7398 9.4527C86.2305 9.46355 85.8404 9.68061 85.5804 10.1256C85.3203 10.5814 85.0494 11.0263 84.7894 11.4822C84.7677 11.5256 84.7352 11.5798 84.7135 11.6232C84.5077 12.1008 84.8544 12.5891 85.2878 12.5891C85.3745 12.5891 85.4503 12.5891 85.5262 12.5891C86.6748 12.5891 87.8233 12.5891 88.9719 12.5891C91.3232 12.5891 93.6745 12.5891 96.0258 12.5891C96.1883 12.5891 96.3617 12.6 96.5134 12.6434C96.7085 12.7085 96.8601 12.8713 96.9143 13.0775C96.9685 13.2837 96.936 13.4682 96.8493 13.6418C96.7085 13.9132 96.5676 14.1953 96.4376 14.4667C96.3184 14.6946 96.1992 14.9333 96.08 15.1612C95.8416 15.5953 95.484 15.8232 94.9856 15.8341C94.8989 15.8341 94.8014 15.8341 94.7147 15.8341C91.0415 15.8341 87.3682 15.8341 83.7058 15.8341C83.6083 15.8341 83.5108 15.8341 83.4024 15.8341C82.9365 15.8667 82.5789 16.0837 82.3514 16.4961C82.3297 16.5287 82.3189 16.5612 82.2972 16.5938C80.9753 19.0248 79.6425 21.4667 78.3097 23.9085C78.2664 23.9845 78.223 24.0713 78.1905 24.1473C78.0388 24.5705 78.3206 25.0155 78.7648 25.0589C78.8623 25.0698 78.9599 25.0698 79.0682 25.0698C82.4597 25.0698 85.8404 25.0698 89.2103 25.0698ZM32.1396 25.1132C33.3315 25.1132 34.5234 25.1132 35.7153 25.1132C35.802 25.1132 35.8995 25.1132 35.9862 25.1132C36.4088 25.0915 36.723 24.8853 36.9505 24.538C37.0047 24.462 37.0372 24.3752 37.0806 24.2992C37.5248 23.4093 37.9799 22.5085 38.4242 21.6077C40.5371 17.3969 42.6392 13.186 44.7521 8.97518C44.893 8.69301 45.0338 8.41084 45.1747 8.12867C45.2939 7.86821 45.3372 7.59689 45.2614 7.31472C45.1964 7.07596 45.0772 6.86976 44.893 6.69611C43.2676 5.07906 41.6532 3.45115 40.0278 1.8341C39.9736 1.77983 39.9195 1.73642 39.8653 1.69301C39.5294 1.4434 39.0743 1.53022 38.8467 1.87751C38.8034 1.94262 38.7709 2.01859 38.7276 2.09456C38.0341 3.47286 37.3514 4.85115 36.658 6.22945C33.7107 12.1225 30.7526 18.0046 27.8054 23.8977C27.762 23.9953 27.697 24.093 27.6645 24.1907C27.4803 24.7225 27.8812 25.124 28.2713 25.124C28.358 25.124 28.4338 25.124 28.5097 25.124C29.7232 25.124 30.9368 25.124 32.1396 25.1132ZM44.6221 25.1132C45.814 25.1132 47.0059 25.1132 48.1978 25.1132C48.2845 25.1132 48.382 25.1132 48.4687 25.1132C48.8913 25.0915 49.2055 24.8961 49.4331 24.5488C49.4872 24.462 49.5306 24.3752 49.5739 24.2884C50.2566 22.9209 50.9392 21.5643 51.6218 20.1969C53.6047 16.2248 55.5876 12.2527 57.5922 8.29146C57.9064 7.67286 57.7873 7.08681 57.3213 6.62014C55.7285 5.05735 54.1682 3.47286 52.5862 1.89921C52.532 1.84495 52.4887 1.79069 52.4345 1.74728C52.0553 1.39999 51.5243 1.55193 51.3184 1.92092C51.2968 1.96433 51.2643 2.01859 51.2426 2.062C49.9098 4.72092 48.5771 7.39069 47.2443 10.0496C44.9363 14.662 42.6175 19.2744 40.3095 23.8868C40.2554 23.9953 40.2012 24.093 40.1578 24.2015C39.9953 24.6248 40.3312 25.0915 40.7321 25.1132C40.8188 25.1132 40.9163 25.1132 41.003 25.1132C42.1949 25.1132 43.4085 25.1132 44.6221 25.1132ZM108.053 25.1132C109.245 25.1132 110.437 25.1132 111.629 25.1132C111.716 25.1132 111.813 25.1132 111.9 25.1132C112.333 25.0915 112.648 24.8853 112.875 24.5271C112.918 24.4512 112.962 24.3643 113.005 24.2884C115.248 19.7953 117.502 15.3023 119.745 10.7984C119.777 10.7225 119.821 10.6574 119.853 10.5814C120.037 10.1364 119.745 9.70231 119.355 9.6372C119.236 9.61549 119.105 9.61549 118.975 9.61549C116.602 9.61549 114.229 9.61549 111.857 9.61549C111.77 9.61549 111.694 9.61549 111.618 9.61549C111.401 9.62634 111.196 9.68061 111.001 9.79999C110.784 9.93022 110.632 10.1147 110.524 10.3318C110.296 10.7876 110.069 11.2325 109.841 11.6884C107.804 15.769 105.767 19.8387 103.73 23.9194C103.676 24.0279 103.622 24.1256 103.589 24.2341C103.459 24.6139 103.752 25.0915 104.185 25.1132C104.272 25.1132 104.369 25.1132 104.456 25.1132C105.659 25.1132 106.861 25.1132 108.053 25.1132Z" fill="white"/>
<path d="M128.641 22.0744C128.359 22.0744 128.077 22.0636 127.796 22.0744C127.308 22.0961 126.907 21.586 127.156 21.0651C127.221 20.924 127.297 20.7938 127.362 20.6527C128.533 18.3085 129.714 15.9535 130.884 13.6093C130.927 13.5116 130.981 13.4139 131.036 13.3163C131.263 12.9473 131.588 12.7302 132.011 12.6651C132.119 12.6543 132.227 12.6434 132.336 12.6434C132.791 12.6434 133.235 12.6434 133.69 12.6434C133.777 12.6434 133.874 12.6434 133.961 12.6651C134.395 12.7519 134.633 13.1752 134.47 13.5984C134.449 13.6636 134.405 13.7287 134.384 13.7938C133.149 16.2791 131.902 18.7535 130.656 21.2388C130.602 21.3364 130.548 21.445 130.483 21.5318C130.234 21.8682 129.887 22.0527 129.443 22.0636C129.183 22.0853 128.912 22.0744 128.641 22.0744Z" fill="white"/>
<path d="M18.0969 14.9225C17.7718 14.9225 17.4468 14.9116 17.1217 14.9225C16.84 14.9333 16.5149 14.7271 16.4499 14.3256C16.4282 14.1953 16.4499 14.0759 16.5041 13.9566C16.6233 13.7069 16.7316 13.4682 16.8616 13.2294C17.035 12.9147 17.3167 12.7194 17.6851 12.6759C17.7827 12.6651 17.8802 12.6542 17.9777 12.6542C18.5195 12.6542 19.0613 12.6542 19.603 12.6542C19.7006 12.6542 19.7981 12.6651 19.8956 12.6868C20.2857 12.7736 20.5241 13.186 20.3832 13.5659C20.2748 13.848 20.1448 14.1302 19.9823 14.3907C19.7764 14.738 19.4405 14.9225 19.0396 14.9225C18.7254 14.9333 18.4003 14.9225 18.0969 14.9225Z" fill="white"/>
</g>
<defs>
<clipPath id="clip0_4_95">
<rect width="173" height="28" fill="white" transform="translate(0.5)"/>
</clipPath>
</defs>
</svg>
