<?xml version="1.0" encoding="UTF-8"?>
<svg xmlns="http://www.w3.org/2000/svg" xmlns:xlink="http://www.w3.org/1999/xlink" width="24px" height="18px" viewBox="0 0 23 18" version="1.1">
<g id="surface1">
<path style=" stroke:none;fill-rule:nonzero;fill:#fff;fill-opacity:1;" d="M 23 6.398438 C 22.996094 6.414062 22.988281 6.433594 22.988281 6.449219 C 22.984375 6.597656 22.9375 6.738281 22.878906 6.871094 C 22.550781 7.585938 22.222656 8.304688 21.894531 9.019531 C 21.609375 9.640625 21.320312 10.265625 21.035156 10.890625 C 20.902344 11.183594 20.695312 11.402344 20.410156 11.535156 C 20.398438 11.539062 20.390625 11.546875 20.378906 11.550781 C 20.386719 11.613281 20.398438 11.671875 20.402344 11.734375 C 20.433594 11.980469 20.390625 12.214844 20.285156 12.433594 C 20.078125 12.855469 19.875 13.277344 19.667969 13.699219 C 19.445312 14.152344 19.226562 14.605469 19.007812 15.054688 C 18.785156 15.503906 18.441406 15.789062 17.972656 15.90625 C 17.863281 15.933594 17.753906 15.941406 17.644531 15.941406 C 15.382812 15.941406 13.125 15.941406 10.867188 15.941406 C 10.8125 15.941406 10.761719 15.953125 10.714844 15.980469 C 9.570312 16.570312 8.394531 17.070312 7.167969 17.441406 C 6.621094 17.609375 6.0625 17.746094 5.5 17.84375 C 4.984375 17.933594 4.464844 17.992188 3.941406 18 C 3.433594 18.007812 2.933594 17.96875 2.4375 17.847656 C 1.996094 17.742188 1.578125 17.574219 1.199219 17.308594 C 0.5625 16.855469 0.179688 16.230469 0.0507812 15.4375 C 0.0117188 15.191406 -0.0078125 14.945312 0.00390625 14.699219 C 0.0390625 13.902344 0.253906 13.152344 0.558594 12.425781 C 0.871094 11.671875 1.273438 10.96875 1.722656 10.296875 C 2.300781 9.429688 2.957031 8.621094 3.660156 7.859375 C 4.589844 6.855469 5.589844 5.9375 6.652344 5.089844 C 6.683594 5.0625 6.714844 5.054688 6.757812 5.0625 C 6.976562 5.101562 7.199219 5.148438 7.417969 5.21875 C 7.433594 5.222656 7.453125 5.230469 7.480469 5.238281 C 7.453125 5.261719 7.433594 5.277344 7.414062 5.292969 C 6.683594 5.859375 5.988281 6.46875 5.335938 7.128906 C 4.609375 7.863281 3.949219 8.65625 3.386719 9.535156 C 3.003906 10.140625 2.675781 10.773438 2.441406 11.453125 C 2.304688 11.84375 2.203125 12.242188 2.144531 12.652344 C 2.0625 13.242188 2.070312 13.828125 2.234375 14.402344 C 2.53125 15.40625 3.15625 16.089844 4.089844 16.472656 C 4.398438 16.601562 4.722656 16.675781 5.050781 16.71875 C 5.441406 16.769531 5.835938 16.769531 6.226562 16.738281 C 6.816406 16.6875 7.390625 16.566406 7.960938 16.402344 C 8.371094 16.28125 8.777344 16.140625 9.175781 15.980469 C 9.195312 15.972656 9.210938 15.964844 9.226562 15.941406 C 9.203125 15.941406 9.183594 15.941406 9.160156 15.941406 C 8.089844 15.941406 7.023438 15.941406 5.953125 15.941406 C 5.605469 15.941406 5.3125 15.816406 5.070312 15.5625 C 4.871094 15.355469 4.675781 15.152344 4.480469 14.949219 C 4.230469 14.6875 4.105469 14.371094 4.113281 14.003906 C 4.117188 13.820312 4.160156 13.648438 4.234375 13.484375 C 4.453125 13.027344 4.671875 12.574219 4.886719 12.117188 C 5.667969 10.480469 6.449219 8.839844 7.230469 7.203125 C 7.484375 6.667969 7.742188 6.132812 7.996094 5.597656 C 8.007812 5.574219 8.019531 5.554688 8.03125 5.527344 C 8.050781 5.546875 8.066406 5.558594 8.082031 5.574219 C 8.207031 5.6875 8.300781 5.828125 8.371094 5.984375 C 8.421875 6.105469 8.457031 6.230469 8.503906 6.351562 C 8.519531 6.394531 8.515625 6.433594 8.496094 6.472656 C 8.328125 6.816406 8.164062 7.164062 8 7.511719 C 7.355469 8.859375 6.710938 10.210938 6.066406 11.558594 C 5.707031 12.316406 5.347656 13.070312 4.984375 13.828125 C 4.933594 13.9375 4.914062 14.050781 4.953125 14.167969 C 5.003906 14.335938 5.148438 14.445312 5.320312 14.449219 C 5.339844 14.449219 5.359375 14.449219 5.382812 14.449219 C 9.25 14.449219 13.113281 14.449219 16.980469 14.449219 C 17.300781 14.449219 17.527344 14.304688 17.671875 14.007812 C 18.089844 13.148438 18.507812 12.285156 18.929688 11.429688 C 19.046875 11.191406 18.933594 10.929688 18.730469 10.851562 C 18.679688 10.828125 18.621094 10.820312 18.5625 10.820312 C 17.847656 10.816406 17.132812 10.816406 16.417969 10.816406 C 15.707031 10.816406 14.996094 10.816406 14.28125 10.820312 C 13.988281 10.820312 13.765625 10.957031 13.628906 11.230469 C 13.464844 11.558594 13.304688 11.890625 13.140625 12.222656 C 13.054688 12.390625 12.929688 12.519531 12.757812 12.582031 C 12.6875 12.609375 12.617188 12.628906 12.546875 12.628906 C 12.210938 12.632812 11.875 12.632812 11.539062 12.632812 C 11.3125 12.628906 11.140625 12.421875 11.160156 12.1875 C 11.167969 12.136719 11.183594 12.082031 11.203125 12.035156 C 11.449219 11.53125 11.691406 11.023438 11.945312 10.519531 C 12.070312 10.269531 12.28125 10.140625 12.554688 10.136719 C 12.902344 10.132812 13.25 10.136719 13.597656 10.140625 C 13.804688 10.140625 14.011719 10.144531 14.21875 10.144531 C 15.90625 10.144531 17.597656 10.144531 19.285156 10.148438 C 19.414062 10.148438 19.523438 10.105469 19.609375 10.003906 C 19.636719 9.964844 19.660156 9.921875 19.683594 9.878906 C 20.191406 8.773438 20.699219 7.664062 21.203125 6.558594 C 21.3125 6.324219 21.417969 6.09375 21.523438 5.859375 C 21.601562 5.6875 21.570312 5.503906 21.441406 5.378906 C 21.367188 5.308594 21.285156 5.273438 21.1875 5.265625 C 21.160156 5.265625 21.136719 5.265625 21.109375 5.265625 C 17.785156 5.265625 14.457031 5.265625 11.132812 5.265625 C 11.105469 5.265625 11.078125 5.265625 11.050781 5.265625 C 11.050781 5.261719 11.050781 5.257812 11.050781 5.253906 C 11.078125 5.246094 11.101562 5.234375 11.128906 5.226562 C 11.398438 5.140625 11.675781 5.085938 11.953125 5.039062 C 12.074219 5.019531 12.195312 5.003906 12.316406 4.984375 C 12.5625 4.941406 12.753906 4.734375 12.785156 4.46875 C 12.785156 4.453125 12.785156 4.4375 12.789062 4.414062 C 12.984375 4.410156 13.179688 4.414062 13.375 4.414062 C 13.574219 4.410156 13.773438 4.414062 13.96875 4.414062 L 19.890625 4.414062 C 19.878906 4.324219 19.871094 4.242188 19.859375 4.160156 C 19.792969 3.683594 19.644531 3.238281 19.394531 2.832031 C 19 2.191406 18.449219 1.761719 17.761719 1.515625 C 17.4375 1.398438 17.109375 1.332031 16.769531 1.296875 C 16.300781 1.25 15.835938 1.273438 15.371094 1.335938 C 14.609375 1.441406 13.871094 1.652344 13.152344 1.925781 C 12.289062 2.246094 11.46875 2.65625 10.664062 3.109375 C 10.605469 3.140625 10.546875 3.175781 10.492188 3.207031 C 10.488281 3.210938 10.480469 3.210938 10.472656 3.210938 C 10.324219 3.066406 10.226562 2.886719 10.148438 2.691406 C 10.164062 2.679688 10.175781 2.671875 10.1875 2.664062 C 11.617188 1.832031 13.105469 1.128906 14.675781 0.628906 C 15.292969 0.433594 15.921875 0.269531 16.558594 0.15625 C 17.136719 0.0546875 17.71875 -0.00390625 18.304688 0 C 18.851562 0.00390625 19.394531 0.0664062 19.921875 0.234375 C 20.3125 0.355469 20.675781 0.535156 21.003906 0.792969 C 21.539062 1.222656 21.871094 1.78125 22.003906 2.472656 C 22.074219 2.839844 22.082031 3.210938 22.042969 3.585938 C 22.011719 3.925781 21.945312 4.257812 21.859375 4.585938 C 21.855469 4.597656 21.851562 4.605469 21.847656 4.621094 C 21.863281 4.632812 21.875 4.644531 21.886719 4.652344 C 21.9375 4.699219 21.992188 4.742188 22.039062 4.789062 C 22.238281 4.996094 22.4375 5.203125 22.636719 5.410156 C 22.816406 5.597656 22.933594 5.820312 22.980469 6.082031 C 22.988281 6.128906 22.992188 6.175781 23 6.226562 Z M 23 6.398438 "/>
<path style=" stroke:none;fill-rule:nonzero;fill:#fff;fill-opacity:1;" d="M 9.289062 1.234375 C 9.347656 1.234375 9.382812 1.273438 9.394531 1.339844 C 9.40625 1.4375 9.417969 1.535156 9.433594 1.628906 C 9.492188 2.019531 9.558594 2.40625 9.6875 2.777344 C 9.710938 2.839844 9.738281 2.90625 9.761719 2.96875 C 9.949219 3.414062 10.257812 3.726562 10.6875 3.917969 C 10.953125 4.035156 11.230469 4.113281 11.511719 4.167969 C 11.746094 4.214844 11.980469 4.25 12.214844 4.289062 C 12.222656 4.292969 12.234375 4.292969 12.246094 4.292969 C 12.296875 4.308594 12.328125 4.351562 12.324219 4.402344 C 12.324219 4.453125 12.292969 4.496094 12.242188 4.503906 C 12.160156 4.519531 12.074219 4.53125 11.988281 4.542969 C 11.609375 4.605469 11.234375 4.675781 10.871094 4.808594 C 10.769531 4.847656 10.667969 4.894531 10.570312 4.941406 C 10.171875 5.144531 9.90625 5.46875 9.738281 5.890625 C 9.632812 6.15625 9.5625 6.429688 9.511719 6.714844 C 9.46875 6.960938 9.433594 7.207031 9.394531 7.457031 C 9.382812 7.539062 9.324219 7.585938 9.257812 7.5625 C 9.214844 7.546875 9.191406 7.515625 9.183594 7.472656 C 9.171875 7.390625 9.164062 7.3125 9.152344 7.234375 C 9.097656 6.859375 9.035156 6.488281 8.917969 6.128906 C 8.882812 6.007812 8.835938 5.886719 8.78125 5.769531 C 8.613281 5.386719 8.339844 5.105469 7.972656 4.921875 C 7.730469 4.804688 7.476562 4.726562 7.214844 4.664062 C 6.941406 4.601562 6.667969 4.554688 6.390625 4.515625 C 6.375 4.511719 6.355469 4.511719 6.339844 4.507812 C 6.28125 4.492188 6.246094 4.453125 6.25 4.398438 C 6.25 4.339844 6.285156 4.300781 6.347656 4.292969 C 6.40625 4.28125 6.464844 4.273438 6.523438 4.265625 C 6.820312 4.21875 7.113281 4.167969 7.402344 4.085938 C 7.558594 4.042969 7.710938 3.988281 7.863281 3.925781 C 8.320312 3.738281 8.644531 3.398438 8.832031 2.921875 C 8.9375 2.65625 9.011719 2.382812 9.0625 2.105469 C 9.105469 1.859375 9.140625 1.609375 9.179688 1.363281 C 9.179688 1.34375 9.183594 1.328125 9.1875 1.308594 C 9.203125 1.261719 9.242188 1.234375 9.289062 1.234375 Z M 9.289062 1.234375 "/>
<path style=" stroke:none;fill-rule:nonzero;fill:#fff;fill-opacity:1;" d="M 14.105469 8.363281 C 13.921875 8.363281 13.742188 8.363281 13.5625 8.359375 C 13.425781 8.359375 13.320312 8.292969 13.246094 8.175781 C 13.171875 8.054688 13.160156 7.925781 13.214844 7.792969 C 13.277344 7.65625 13.339844 7.515625 13.410156 7.382812 C 13.527344 7.15625 13.71875 7.042969 13.960938 7.03125 C 14.050781 7.027344 14.136719 7.027344 14.226562 7.027344 C 14.476562 7.027344 14.726562 7.027344 14.980469 7.027344 C 15.03125 7.027344 15.085938 7.035156 15.136719 7.046875 C 15.359375 7.113281 15.480469 7.367188 15.390625 7.589844 C 15.332031 7.730469 15.273438 7.871094 15.199219 8.003906 C 15.074219 8.230469 14.878906 8.351562 14.621094 8.359375 C 14.449219 8.363281 14.277344 8.363281 14.105469 8.363281 Z M 14.105469 8.363281 "/>
</g>
</svg>
